<svg xmlns="http://www.w3.org/2000/svg" viewBox="0 0 465.04 89.79"><defs><style>.cls-1,.cls-2,.cls-3,.cls-4{fill:#fff;}.cls-1{opacity:0.7;}.cls-3{opacity:0.8;}.cls-4{opacity:0.5;}</style></defs><title>Recurso 1</title><g id="Capa_2" data-name="Capa 2"><g id="Capa_1-2" data-name="Capa 1"><path class="cls-1" d="M36.79,11.61A37.68,37.68,0,0,0,0,47.57a3.65,3.65,0,0,0,3.6,3.92h8a38.74,38.74,0,0,1,.53-6.25C14.54,30.9,24.94,22.72,37.59,22.72a23.55,23.55,0,0,1,11.5,3.05A20.56,20.56,0,0,1,59.4,43.94h0A14.9,14.9,0,0,1,45.47,59.4a17.67,17.67,0,0,0,3-.13A20.61,20.61,0,0,0,63.7,49.1a23.59,23.59,0,0,0,3-11.51C66.75,22.9,55.71,11.24,36.79,11.61Z"/><path class="cls-2" d="M11.6,52.67a37.68,37.68,0,0,0,36,36.78,3.65,3.65,0,0,0,3.92-3.6v-8a38.74,38.74,0,0,1-6.25-.53C30.89,74.92,22.7,64.52,22.71,51.87a23.55,23.55,0,0,1,3.05-11.5A20.56,20.56,0,0,1,43.93,30.06h0a15.17,15.17,0,0,1,12.32,5.7A15.33,15.33,0,0,1,59.4,44,20.57,20.57,0,0,0,49.09,25.76a23.59,23.59,0,0,0-11.51-3.05C22.89,22.71,11.23,33.75,11.6,52.67Z"/><path class="cls-3" d="M52.62,77.85a37.69,37.69,0,0,0,36.79-36A3.66,3.66,0,0,0,85.8,38h-8a37.4,37.4,0,0,1-.53,6.25C74.87,58.56,64.47,66.75,51.83,66.74a23.56,23.56,0,0,1-11.51-3A20.58,20.58,0,0,1,30,45.52h0a15.16,15.16,0,0,1,5.7-12.32,15.33,15.33,0,0,1,8.23-3.15A20.57,20.57,0,0,0,25.71,40.36a23.7,23.7,0,0,0-3.05,11.51C22.66,66.56,33.7,78.22,52.62,77.85Z"/><path class="cls-4" d="M77.81,36.79A37.68,37.68,0,0,0,41.86,0a3.65,3.65,0,0,0-3.92,3.6l0,8h.21l1.08,0a38.56,38.56,0,0,1,4.56.43l.4.06a29.1,29.1,0,0,1,13,5.38,24.66,24.66,0,0,1,9.62,20.09,23.55,23.55,0,0,1-3,11.5,20.06,20.06,0,0,1-9.2,8.43,20.7,20.7,0,0,1-6.22,1.77,16.56,16.56,0,0,1-2.8.11h0A14.9,14.9,0,0,1,30,45.47,20.54,20.54,0,0,0,40.32,63.7a23.59,23.59,0,0,0,11.51,3C66.52,66.75,78.19,55.71,77.81,36.79Z"/><path class="cls-2" d="M135,21.47c13.24,0,23.15,10,23.15,23.34S148.22,68.16,135,68.16s-23.15-10-23.15-23.35S121.73,21.47,135,21.47Zm0,38.11c8.29,0,14.1-6.57,14.1-14.77S143.27,30,135,30s-14.1,6.58-14.1,14.77S126.69,59.58,135,59.58Z"/><path class="cls-2" d="M230.34,46.72a.47.47,0,0,0-.46.51,14.42,14.42,0,0,0,14.44,13,16,16,0,0,0,12.55-5.76.45.45,0,0,1,.65,0l5.26,5a.45.45,0,0,1,.05.62c-3.4,4.17-9.69,8.06-18.61,8.06-13.05,0-23.15-9.91-23.15-23.35s9.15-23.34,21.82-23.34c12.48,0,21.53,10.1,21.53,23.34a17.47,17.47,0,0,1-.09,1.91Zm.26-7.62H255a12.51,12.51,0,0,0-11.81-9.72A13,13,0,0,0,230.6,39.1Z"/><path class="cls-2" d="M189.59,21.47h-1a18.69,18.69,0,0,0-7.08,1.33,22.32,22.32,0,0,0-5.64,2.91.45.45,0,0,1-.72-.36V22.88a.46.46,0,0,0-.45-.46h-7.86a.46.46,0,0,0-.45.46V89.33a.45.45,0,0,0,.45.46H175a.45.45,0,0,0,.46-.46V64.49a.45.45,0,0,1,.71-.37,23.39,23.39,0,0,0,13.39,4c13.24,0,23.15-10,23.15-23.35S202.83,21.47,189.59,21.47Zm0,38.11c-8.29,0-14.1-6.57-14.1-14.76h0c0-8.2,5.81-14.77,14.1-14.77s14.1,6.58,14.1,14.77S197.88,59.58,189.59,59.58Z"/><path class="cls-2" d="M392.61,50.44,380.65,67a.49.49,0,0,1-.37.18h-9.65a.45.45,0,0,1-.37-.72L386.4,44.09a.72.72,0,0,0,0-.84L371.88,23.14a.46.46,0,0,1,.37-.72h9.55a.45.45,0,0,1,.37.19l10.44,14.3,10.44-14.3a.45.45,0,0,1,.37-.19H413a.46.46,0,0,1,.37.72L398.82,43.25a.72.72,0,0,0,0,.84L415,66.48a.46.46,0,0,1-.37.72h-9.65a.49.49,0,0,1-.37-.18Z"/><path class="cls-2" d="M441.88,21.47c13.25,0,23.16,10,23.16,23.34s-9.91,23.35-23.16,23.35-23.15-10-23.15-23.35S428.64,21.47,441.88,21.47Zm0,38.11C450.17,59.58,456,53,456,44.81S450.17,30,441.88,30s-14.1,6.58-14.1,14.77S433.59,59.58,441.88,59.58Z"/><path class="cls-2" d="M331.66,46.72a.47.47,0,0,0-.46.51,14.42,14.42,0,0,0,14.44,13,16,16,0,0,0,12.56-5.76.44.44,0,0,1,.64,0l5.26,5a.45.45,0,0,1,0,.62c-3.4,4.17-9.69,8.06-18.61,8.06-13.05,0-23.15-9.91-23.15-23.35s9.15-23.34,21.82-23.34c12.48,0,21.53,10.1,21.53,23.34a17.47,17.47,0,0,1-.09,1.91Zm.26-7.62h24.39a12.51,12.51,0,0,0-11.81-9.72A13,13,0,0,0,331.92,39.1Z"/><path class="cls-2" d="M276,22.42h8.33a.45.45,0,0,1,.45.45v4.22a.45.45,0,0,0,.8.29,16.28,16.28,0,0,1,12.65-5.82c11.3,0,16,8.79,16,18.25V66.75a.45.45,0,0,1-.45.45H305.5a.45.45,0,0,1-.45-.45V41.2c0-6.63-3.27-11.07-9.42-11.07-6.63,0-10.85,3.81-10.85,11.92v24.7a.45.45,0,0,1-.45.45H276a.45.45,0,0,1-.45-.45V22.87A.45.45,0,0,1,276,22.42Z"/></g></g></svg>